<svg xmlns="http://www.w3.org/2000/svg" viewBox="0 0 98.3545 98.2663" class="symbol"><path d="M41.1101,10.6123c-1.8871,9.0038-6.8558,17.0673-14.05,22.8008-5.9895,4.93-13.3755,7.8556-21.1164,8.3643-3.7665,.2485-5.4538-.5799-4.3161-4.9981C7.1928,16.2107,25.2063,1.4465,46.4672,.0279c3.5898-.2292,4.8794,.9251,5.0865,4.5922,1.1741,20.1394,15.4928,37.0901,35.1525,41.6142,6.6577,1.5906,7.7319,.6351,6.3512-6.0033-2.7752-14.0884-12.2798-25.9217-25.438-31.6704-1.505-.7262-3.6865-.0552-5.5559-.0304,1.1984,1.5298,2.0766,3.7417,3.645,4.4873,10.1558,4.5531,17.9042,13.1997,21.3207,23.7922,.3061,1.2478,.5239,2.5157,.6517,3.7942-1.3851-.037-2.764-.1987-4.12-.4832-15.3238-5.2083-25.9322-19.2223-26.7855-35.3845-.1105-3.1425,1.0024-3.6312,3.6975-3.2695,19.8986,2.7614,38.9936,26.3768,37.8311,46.6675-.1712,2.9878-1.7507,3.344-4.1145,3.565-21.7101,2.0269-37.0883,15.2346-41.94,35.9147-.7428,3.1618-1.1736,6.0751,3.5677,6.0033,14.2074-.2181,32.7391-16.0161,35.622-30.5852-3.9681-2.3279-5.0506,.9195-6.238,3.4241-4.4951,9.814-12.915,17.2816-23.1957,20.5724-1.357,.3431-2.7339,.6022-4.1228,.776,.3716-2.0108,.8444-4.0015,1.4166-5.9646,5.5989-14.0229,18.5986-23.7132,33.6365-25.0735,3.7472-.2209,4.9429,.7566,4.0372,4.7606-5.1559,20.4978-22.9451,35.3298-44.0359,36.7155-4.051,.1878-5.7547-.6544-6.0281-5.1693-1.5693-19.5624-15.5723-35.882-34.6693-40.4047-7.0747-1.6044-8.2041-.6655-6.6991,6.2352,2.85,13.9003,12.2816,25.5464,25.2861,31.2231,1.8226,.4069,3.7071,.4539,5.5476,.1381-1.1681-1.5243-2.0158-3.7003-3.5622-4.4735-9.6347-4.453-17.1111-12.544-20.7905-22.4998-.5274-1.4304-.8119-2.9519-1.2095-4.4182l1.2675-1.4967c4.659,1.9477,9.1558,4.2626,13.448,6.9228,9.5423,6.4419,15.4802,17.0134,16.0161,28.5141,.2154,3.9157-.7014,5.3433-4.9871,4.2084C15.9915,91.4352,1.286,73.347,.015,52.0746c-.1657-3.5898,1.019-4.791,4.675-5.0119,20.5082-1.2408,37.605-16.1456,41.6308-36.293,1.0328-5.219,0-6.4506-5.2052-5.4261C26.4735,7.9792,14.1276,17.7793,8.2384,31.4415c-.6572,1.3807,.1049,3.4407,.2071,5.1859,1.4304-1.03,3.5484-1.7424,4.1863-3.1369,4.2647-9.7217,12.2338-17.3389,22.1381-21.1606,1.5768-.6296,3.2971-.9085,6.3512-1.7176m8.3366,68.5488c5.658-13.2126,16.277-23.6759,29.5718-29.1382-6.0152-3.8683-11.7417-8.1681-17.1344-12.8653-4.8518-4.849-8.4084-10.9931-13.147-17.3968-5.7969,13.1489-16.1583,23.7545-29.1686,29.8562,14.1383,6.1192,23.2288,16.3668,29.8672,29.5469m16.8252-2.0213l1.1984,1.2481c5.5973-1.3144,11.0898-7.3177,10.1868-12.7549l-11.3852,11.5067m2.176-57.865c-.3546,5.5797,3.8812,10.3903,9.4608,10.7449,.469,.0298,.9394,.0269,1.408-.0086l-10.8688-10.7363ZM19.1984,30.047l1.2454,1.2205c6.0136-1.3769,10.2977-6.6991,10.358-12.8681l-11.5979,11.6476m2.2478,36.2157l-1.284,1.2454c1.1046,4.918,6.6025,10.2365,12.0452,9.6925l-10.7694-10.9379"></path></svg>