<svg xmlns="http://www.w3.org/2000/svg" width="13" height="12.992" viewBox="0 0 13 12.992">
  <path id="empty-set" class="cls-1" d="M6.5,13.155a6.429,6.429,0,0,1-2.778-.607.507.507,0,0,1,.435-.916,5.494,5.494,0,0,0,7.285-7.31.507.507,0,0,1,.916-.434A6.5,6.5,0,0,1,6.5,13.155ZM1.322,9.708a.507.507,0,0,0,.238-.676A5.486,5.486,0,0,1,8.846,1.723.507.507,0,0,0,9.281.807,6.5,6.5,0,0,0,.645,9.47a.508.508,0,0,0,.676.238Zm-.443,3.3L12.844,1.041a.507.507,0,0,0-.717-.717L.161,12.29a.507.507,0,0,0,.717.717Z" transform="translate(0 -0.164)"/>
</svg>
